<?xml version="1.0" encoding="UTF-8"?>
<svg id="Layer_2" data-name="Layer 2" xmlns="http://www.w3.org/2000/svg" viewBox="0 0 128 38">
  <defs>
    <style>
      .cls-1 {
        fill: #f63;
      }
    </style>
  </defs>
  <g id="Layer_20" data-name="Layer 20">
    <g>
      <path class="cls-1" d="M113.93,24.5h-9.24c-.14,0-.26.05-.37.14-.11.09-.18.21-.2.34l-.39,1.79c-.02.13,0,.25.06.34.07.09.17.14.31.14h9.24c.14,0,.26-.05.37-.14.11-.09.18-.21.2-.34l.39-1.79c.02-.13,0-.25-.06-.34-.07-.09-.17-.14-.3-.14Z"/>
      <path class="cls-1" d="M14.03,12.18h8.98c.12,0,.24-.04.34-.13.1-.09.17-.19.19-.31l1.37-6.37c.02-.12,0-.23-.06-.31-.07-.09-.17-.13-.31-.13h-8.98c-.16,0-.31.06-.45.17-.14.12-.23.25-.27.41l-1.29,6.08c-.03.17,0,.31.09.42.09.11.22.17.39.17Z"/>
      <path class="cls-1" d="M127.41,16.22c-.55-.73-1.4-1.15-2.33-1.15h-16.42c.05-.14.1-.28.13-.43l2.15-10.04c.27-1.16.03-2.3-.68-3.2-.71-.9-1.76-1.39-2.95-1.39h-7.7c-.73,0-1.42.25-2,.74,0,0-.02.02-.03.02l-5.83,4.35.35-1.65c.15-.83-.04-1.64-.54-2.31-.55-.73-1.4-1.15-2.33-1.15h-2.24c-.58,0-1.14.17-1.64.48-.46-.3-1-.48-1.58-.48h-21.34c-.74,0-1.43.26-2,.74,0,0-.02.02-.02.02-.05.03-.1.06-.14.1,0,0-.02.02-.02.02-.05.03-.1.06-.14.1,0,0-.02.02-.02.02-.05.03-.1.06-.14.1,0,0-.02.02-.02.02-.05.03-.1.06-.14.1,0,0-.02.02-.02.02-.05.03-.1.06-.14.1,0,0-.02.02-.02.02-.05.03-.1.06-.14.1,0,0-.02.02-.02.02-.05.03-.1.06-.14.1,0,0-.02.02-.02.02-.05.03-.1.06-.14.1,0,0-.02.02-.02.02-.05.03-.1.06-.14.1,0,0-.02.02-.02.02-.05.03-.1.06-.14.1,0,0-.02.02-.02.02-.05.03-.1.06-.14.1,0,0-.02.02-.02.02-.05.03-.1.06-.14.1,0,0,0,0-.01.01-.05-.2-.11-.4-.2-.59-.48-1-1.48-1.63-2.61-1.63h-6.67c-.71,0-1.37.24-1.92.69l-5.07,3.78.23-1.06c.15-.85-.05-1.67-.56-2.33-.55-.69-1.38-1.09-2.29-1.09h-1.5c-.43,0-.84.08-1.22.25-.14.06-.31.16-.47.27-.25.17-.57.18-.83.04-.28-.16-.6-.31-.7-.35-.42-.14-.87-.21-1.33-.21H14.84c-.56,0-1.11.11-1.65.31-.47.19-.91.44-1.31.77l-6.72,5.02c-.41.33-.76.73-1.04,1.17-.28.44-.48.92-.61,1.42l-2.02,9.47c-.13.64-.11,1.27.05,1.86.09.33,0,.69-.25.92-.17.15-.35.36-.53.64-.2.32-.34.66-.4,1.01l-.29,1.37c-.21.89,0,1.79.56,2.48.56.69,1.39,1.08,2.28,1.08h.43l-1.5,7.01c-.16.86.06,1.73.61,2.39.56.68,1.39,1.07,2.28,1.07h8.7c.73,0,1.42-.25,2-.74l2.75-2.06c.14.47.35.92.66,1.32.75.95,1.86,1.48,3.13,1.48h20.04c.58,0,1.13-.16,1.62-.47.46.29,1,.47,1.57.47h8.64c.59,0,1.19-.13,1.7-.44l6.72-5.02c.18-.11.34-.23.49-.37l-.51,2.4c-.16.86.05,1.7.58,2.35.55.69,1.38,1.08,2.28,1.08h1.44c.58,0,1.14-.17,1.64-.48.46.3,1,.48,1.58.48h20.51c.94,0,1.84-.33,2.59-.95.01-.01.02-.02.04-.03,0,0,0,0,.01,0,.71.64,1.63.99,2.66.99h20.04c.73,0,1.42-.25,2-.74l6.72-5.02c.56-.47.93-1.1,1.05-1.74l2.56-11.97c.15-.83-.04-1.64-.54-2.31ZM84.55,12.33c.12-.1.24-.15.38-.15h11.62c.14,0,.26-.05.38-.15.12-.1.19-.21.21-.35l.24-1.1c.02-.13,0-.25-.07-.35-.07-.1-.18-.15-.31-.15h-10.33c-.51,0-.89-.17-1.15-.51-.27-.34-.35-.76-.25-1.25l1.13-5.3c.02-.13.1-.25.22-.35.12-.1.25-.15.39-.15h2.24c.14,0,.24.05.31.15.07.1.1.22.07.35l-.89,4.16c-.03.13,0,.25.07.35s.18.15.31.15h8.39c.14,0,.26-.05.38-.15s.19-.21.21-.35l.91-4.16c.02-.13.1-.25.21-.35s.24-.15.38-.15h7.7c.42,0,.75.15.98.44.23.3.3.65.2,1.07l-2.16,10.09c-.07.36-.26.66-.57.91-.31.25-.64.38-1,.38h-20.51c-.14,0-.24-.05-.31-.15-.07-.1-.1-.21-.07-.35l.46-2.23c.04-.13.11-.25.23-.35ZM59.59,13.63l1.03-4.84c.06-.25.16-.47.3-.69.14-.22.3-.4.5-.56.2-.16.41-.29.65-.38.23-.09.47-.14.72-.14h10.35c.14,0,.26-.05.38-.15.12-.1.19-.21.21-.35l.24-1.11c.02-.13,0-.25-.07-.35-.07-.1-.18-.15-.31-.15h-11.64c-.14,0-.24-.05-.31-.14-.07-.09-.09-.21-.06-.34l.3-1.44c.02-.13.1-.25.21-.35.12-.1.24-.15.38-.15h21.34c.14,0,.24.05.31.15.07.1.1.22.07.35l-2.55,11.9c-.03.13-.1.25-.21.35-.12.1-.24.15-.38.15h-20.04c-.49,0-.88-.17-1.15-.52-.27-.34-.36-.76-.26-1.25ZM35.92,9.6l.52-2.41.9-4.22c.02-.13.09-.25.19-.33.1-.09.22-.13.36-.13h1.5c.14,0,.24.04.3.13.07.09.09.2.06.33l-.81,3.76c-.02.14,0,.25.06.33.07.09.17.13.3.13h6.47c.21,0,.38-.1.5-.31l2.22-4.05c.12-.21.29-.31.5-.31h6.67c.16,0,.27.06.33.19.06.13.05.27-.04.41l-1.9,3.46c-.09.15-.1.29-.03.41.07.13.18.19.34.19h3.92c.12,0,.22.04.29.13.07.09.09.2.06.33l-.35,1.62-.07.33-1.13,5.34c-.03.13-.09.25-.2.33-.11.09-.23.13-.35.13h-8.79c-.12,0-.22-.04-.29-.13-.07-.09-.09-.2-.06-.33l1.03-4.88c.02-.13,0-.25-.06-.33-.07-.09-.16-.13-.29-.13h-9.27c-.14,0-.26.04-.36.13-.1.09-.17.2-.19.33l-1.03,4.88c-.03.13-.09.25-.2.33-.11.09-.23.13-.37.13h-1.5c-.14,0-.24-.04-.31-.13-.07-.09-.09-.2-.06-.33l1.15-5.34ZM10.69,13.63l2-9.35c.06-.25.16-.48.3-.69.14-.21.3-.4.5-.56.2-.16.41-.29.65-.38.23-.09.47-.14.72-.14h18.51c.26,0,.49.05.69.15.2.1.37.23.5.4.13.17.22.36.28.59.06.23.05.47,0,.73l-1.9,8.93c-.06.29-.17.57-.33.82-.16.25-.36.47-.59.66-.23.19-.49.34-.77.45s-.56.17-.86.17H12.09c-.49,0-.87-.17-1.15-.52-.27-.34-.36-.76-.26-1.25ZM26.81,19.84c-.12.1-.25.15-.39.15h-3.03c-.14,0-.26.05-.39.15-.12.1-.2.21-.22.35l-2.03,9.48c-.02.13-.1.25-.21.35-.12.1-.24.15-.38.15h-8.7c-.14,0-.24-.05-.32-.15-.08-.1-.11-.21-.08-.35l2.03-9.48c.02-.13,0-.25-.07-.35-.07-.1-.18-.15-.31-.15h-3.05c-.14,0-.24-.05-.32-.15-.08-.1-.1-.21-.06-.35l.3-1.42c.02-.13.1-.25.22-.35.12-.1.25-.15.39-.15h16.77c.14,0,.24.05.32.15s.11.21.08.35l-.31,1.42c-.02.14-.1.25-.22.35ZM49.11,30.32c-.12.1-.24.15-.38.15h-20.04c-.49,0-.87-.17-1.15-.52-.27-.34-.36-.76-.26-1.25l1.03-4.84c.06-.25.16-.47.3-.69.14-.21.3-.4.5-.56.2-.16.41-.29.65-.38.23-.09.47-.14.72-.14h10.35c.14,0,.26-.05.38-.15.12-.1.19-.21.21-.35l.24-1.11c.02-.13,0-.25-.07-.35-.07-.1-.18-.15-.31-.15h-11.64c-.14,0-.24-.05-.31-.14-.07-.09-.09-.21-.06-.34l.3-1.44c.02-.13.1-.25.21-.35.12-.1.24-.15.38-.15h21.34c.14,0,.24.05.31.15s.1.21.07.35l-2.55,11.9c-.02.13-.1.25-.21.35ZM75.98,19.99l-2.12,10c-.03.14-.1.25-.21.34-.12.09-.24.14-.38.14h-1.44c-.14,0-.24-.05-.31-.14-.07-.09-.1-.21-.07-.34l1.94-9.08c.05-.26,0-.48-.14-.65-.14-.18-.34-.27-.58-.27h-8.79c-.14,0-.26.05-.38.14-.12.09-.19.21-.21.34l-2.01,9.52c-.04.14-.11.25-.22.34-.11.09-.23.14-.37.14h-8.74c-.14,0-.24-.05-.31-.14-.07-.09-.09-.21-.06-.34l2.12-10,.41-1.93c.02-.13.1-.25.21-.34.12-.09.24-.14.38-.14h19.4c.33,0,.63.06.91.19.27.13.49.3.67.52.17.21.29.47.35.76.06.29.05.61-.02.94ZM100.72,19.09l-2.16,10.09c-.07.36-.26.66-.57.91-.31.25-.64.38-1,.38h-20.51c-.14,0-.24-.05-.31-.15-.07-.1-.1-.21-.07-.35l.46-2.23c.04-.13.11-.25.23-.35.12-.1.24-.15.38-.15h11.62c.14,0,.26-.05.38-.15.12-.1.19-.21.21-.35l.24-1.1c.02-.13,0-.25-.07-.35s-.18-.15-.31-.15h-10.33c-.51,0-.89-.17-1.15-.51-.27-.34-.35-.76-.25-1.25l1.13-5.3c.02-.13.1-.25.22-.35s.25-.15.39-.15h2.24c.14,0,.24.05.31.15.07.1.1.21.07.35l-.89,4.16c-.03.13,0,.25.07.35s.18.15.31.15h8.39c.14,0,.26-.05.38-.15s.19-.21.21-.35l.91-4.16c.02-.13.1-.25.21-.35s.24-.15.38-.15h7.7c.42,0,.75.15.98.44.23.3.3.65.2,1.07ZM122.92,29.97c-.03.13-.1.25-.21.35-.12.1-.24.15-.38.15h-20.04c-.49,0-.88-.17-1.15-.52-.27-.34-.36-.76-.26-1.25l1.03-4.84c.06-.25.16-.47.3-.69.14-.21.3-.4.5-.56.2-.16.41-.29.65-.38.23-.09.47-.14.72-.14h10.35c.14,0,.26-.05.38-.15.12-.1.19-.21.21-.35l.24-1.11c.02-.13,0-.25-.07-.35-.07-.1-.18-.15-.31-.15h-11.64c-.14,0-.24-.05-.31-.14-.07-.09-.09-.21-.06-.34l.3-1.44c.02-.13.1-.25.21-.35.12-.1.24-.15.38-.15h21.34c.14,0,.24.05.31.15.07.1.1.21.07.35l-2.55,11.9Z"/>
      <path class="cls-1" d="M62.8,12.18h9.24c.14,0,.26-.05.37-.14.11-.09.18-.21.2-.34l.39-1.79c.02-.13,0-.25-.06-.34-.07-.09-.17-.14-.31-.14h-9.24c-.14,0-.26.05-.37.14-.11.09-.18.21-.2.34l-.39,1.79c-.02.13,0,.25.06.34.07.09.17.14.31.14Z"/>
      <path class="cls-1" d="M40.33,24.5h-9.24c-.14,0-.26.05-.37.14-.11.09-.18.21-.2.34l-.39,1.79c-.03.13,0,.25.06.34.07.09.17.14.3.14h9.24c.14,0,.26-.05.37-.14.11-.09.18-.21.2-.34l.39-1.79c.02-.13,0-.25-.06-.34-.07-.09-.17-.14-.3-.14Z"/>
    </g>
  </g>
</svg>